<?xml version="1.0" encoding="UTF-8"?>
<svg id="_レイヤー_2" data-name="レイヤー 2" xmlns="http://www.w3.org/2000/svg" viewBox="0 0 18.2809213 18.280917">
  <defs>
    <style>
      .cls-1 {
        stroke-width: 0px;
      }
    </style>
  </defs>
  <g id="_レイヤー_1-2" data-name="レイヤー 1">
    <path class="cls-1" d="m9.3398516,14.8872822l-2.4049152,2.4049152c-1.3182947,1.3182946-3.4556843,1.3182946-4.7739881-.0000104l-1.1722249-1.1722235c-1.3182999-1.3183012-1.3182973-3.4556881.0000039-4.7739893l3.6975722-3.6975708,1.4155857-1.4155847.1309384-.1309384c.4814894-.4814894,1.0722478-.7870811,1.6924516-.9168574.2778556-.0581346.5616147-.0809766.8441215-.0685273.2276445.0100388.454465.0429993.6767192.098875.1958866.0492501.3882162.1163045.5744244.2011698.3573894.1628726.6922175.3912835.9862779.6853439l1.1722236,1.1722252c.0637913.06379.1242985.1296065.1819121.1970474l-1.1704059,1.1704059c-.0525237-.0717422-.1108385-.1400044-.1749027-.2040699l-1.1722184-1.172217c-.3131809-.3131822-.7252851-.4914212-1.1658357-.5057874-.0192106-.0006281-.0384578-.0010538-.0577716-.0010538-.46222.0000065-.896768.1799992-1.223606.5068372l-.1309384.1309384-1.0486289,1.0486289-.5327034.5327034-.4685635.4685622-.4409985.4409998-2.6222623,2.6222609c-.3268381.326838-.506832.761386-.5068372,1.2236047,0,.4622134.1799992.8967679.5068333,1.2236021l1.1722236,1.1722249c.3268407.3268407.7613925.5068371,1.2236086.5068411.4622135,0,.896768-.1800005,1.2235995-.506832l2.4049152-2.4049138,1.16339,1.1633899Zm7.9523482-12.7263285l-1.1722236-1.1722249c-1.3183051-1.3183038-3.4556947-1.3183051-4.7739959-.0000039l-2.4049022,2.4049022,1.16339,1.1633913,2.4049035-2.4049022c.3268368-.3268381.761386-.5068307,1.2235982-.5068307.4622226-.0000039.8967745.1799926,1.2236152.5068346l1.1722236,1.1722236c.3268341.3268341.5068281.7613951.5068281,1.2236086s-.1799939.8967614-.506832,1.2235982l-2.6222558,2.6222561-.441005.441005-.4685635.4685622-.5326969.5326969-1.0486354,1.0486367-.1309449.1309436c-.3268315.3268315-.761386.5068307-1.2235982.5068307-.0193151,0-.0385558-.0004322-.0577625-.0010564-.4405571-.0143599-.8526639-.1926012-1.1658461-.5057834l-1.1722184-1.1722186c-.0640642-.0640639-.122379-.1323262-.1748988-.2040673l-1.1704072,1.1704075c.057611.0674383.1181196.1332535.1819095.1970446l1.1722236,1.1722238c.2940604.2940604.6288976.5224687.9862818.6853478.1862108.0848561.3785339.1519158.574427.2011605.2222477.055881.4490721.0888453.6767231.0988777.2824964.0124531.5662567-.0103888.8441085-.0685273.6202037-.1297763,1.2109595-.4353588,1.692449-.9168482l.1309436-.1309449,1.4155923-1.4155911,3.6975657-3.6975644c1.3182947-1.3182947,1.3183051-3.4556869.0000039-4.7739881Z"/>
  </g>
</svg>